<?xml version="1.0" encoding="UTF-8" standalone="no"?>
<svg
   xmlns:dc="http://purl.org/dc/elements/1.1/"
   xmlns:cc="http://creativecommons.org/ns#"
   xmlns:rdf="http://www.w3.org/1999/02/22-rdf-syntax-ns#"
   xmlns:svg="http://www.w3.org/2000/svg"
   xmlns="http://www.w3.org/2000/svg"
   xmlns:sodipodi="http://sodipodi.sourceforge.net/DTD/sodipodi-0.dtd"
   xmlns:inkscape="http://www.inkscape.org/namespaces/inkscape"
   inkscape:version="1.0 (4035a4f, 2020-05-01)"
   sodipodi:docname="Carleton College logo.svg"
   viewBox="0 0 440.09607 76.49369"
   height="76.49369"
   width="440.09607"
   xml:space="preserve"
   id="svg10"
   version="1.1"><metadata
     id="metadata16"><rdf:RDF><cc:Work
         rdf:about=""><dc:format>image/svg+xml</dc:format><dc:type
           rdf:resource="http://purl.org/dc/dcmitype/StillImage" /><dc:title></dc:title></cc:Work></rdf:RDF></metadata><defs
     id="defs14"><clipPath
       id="clipPath32"
       clipPathUnits="userSpaceOnUse"><path
         id="path30"
         d="M 0,612 H 792 V 0 H 0 Z" /></clipPath><clipPath
       id="clipPath246"
       clipPathUnits="userSpaceOnUse"><path
         id="path244"
         d="m 368.38,416.061 h 330.196 v 57.567 H 368.38 Z" /></clipPath><clipPath
       id="clipPath286"
       clipPathUnits="userSpaceOnUse"><path
         id="path284"
         d="m 359.88,215.668 h 326.894 v 56.991 H 359.88 Z" /></clipPath><clipPath
       id="clipPath326"
       clipPathUnits="userSpaceOnUse"><path
         id="path324"
         d="m 324.004,99.159 h 54.014 v 9.417 h -54.014 z" /></clipPath><clipPath
       clipPathUnits="userSpaceOnUse"
       id="clipPath246-8"><path
         d="m 368.38,416.061 h 330.196 v 57.567 H 368.38 Z"
         id="path244-0" /></clipPath></defs><sodipodi:namedview
     inkscape:current-layer="g18"
     inkscape:window-maximized="0"
     inkscape:window-y="23"
     inkscape:window-x="0"
     inkscape:cy="179.85509"
     inkscape:cx="319.0171"
     inkscape:zoom="0.71323529"
     showgrid="false"
     id="namedview12"
     inkscape:window-height="789"
     inkscape:window-width="1288"
     inkscape:pageshadow="2"
     inkscape:pageopacity="0"
     guidetolerance="10"
     gridtolerance="10"
     objecttolerance="10"
     borderopacity="1"
     bordercolor="#666666"
     pagecolor="#ffffff" /><g
     transform="matrix(1.3333333,0,0,-1.3333333,-208.9829,587.85509)"
     inkscape:label="Carleton_Identity_StyleGuide_0709"
     inkscape:groupmode="layer"
     id="g18"><g
       transform="translate(-211.64282,-32.539938)"
       id="g240"><g
         id="g242"
         clip-path="url(#clipPath246-8)"><g
           id="g248"
           transform="translate(448.3879,429.4786)"><path
             d="m 0,0 c -0.091,-2.176 -0.362,-2.993 -0.725,-3.718 -1.088,-2.266 -5.984,-5.62 -9.155,-5.62 -3.356,0 -5.169,2.357 -5.169,5.892 0,6.527 2.176,8.793 15.139,9.972 C 0.09,3.989 0.09,2.537 0,0 m 14.505,-3.264 c -0.998,-4.443 -2.447,-6.255 -4.352,-6.255 -1.45,0 -2.085,0.725 -2.085,3.173 0,6.164 0.272,13.145 0.272,17.768 0,4.532 -0.725,7.252 -2.992,9.519 -2.448,2.448 -6.164,4.08 -12.057,4.08 -5.53,0 -9.427,-1.996 -11.967,-4.352 -1.268,-1.088 -2.175,-2.811 -2.175,-4.715 0,-2.719 2.175,-4.714 4.986,-4.714 2.721,0 4.623,1.903 4.623,4.443 0,3.082 -2.719,3.444 -2.719,4.169 0,0.545 2.357,2.267 6.255,2.267 2.992,0 5.168,-0.814 6.255,-1.904 1.27,-1.269 1.632,-3.081 1.632,-7.524 0,-1.812 0,-2.629 -0.091,-3.536 -12.782,-0.997 -17.949,-3.354 -20.76,-6.165 -1.903,-1.903 -2.811,-4.17 -2.811,-6.799 0,-5.529 6.257,-9.248 11.423,-9.155 4.715,0 8.523,2.538 11.696,6.073 1.178,-3.718 3.898,-6.073 8.521,-6.073 4.804,0 7.887,3.988 8.613,9.246 0,0.363 -1.996,0.725 -2.267,0.454"
             style="fill:#022169;fill-opacity:1;fill-rule:nonzero;stroke:none"
             id="path250" /></g><g
           id="g252"
           transform="translate(496.4773,454.4079)"><path
             d="m 0,0 c -5.62,0 -8.974,-4.714 -12.147,-11.513 l -0.362,0.09 c 0,3.991 0.089,7.345 0.181,9.248 0.089,0.998 -0.273,1.359 -1.18,1.359 -1.903,0 -8.43,-0.272 -13.598,-0.272 -0.543,0 -0.634,-2.99 -0.09,-2.99 4.532,0 5.62,0 5.983,-0.364 0.453,-0.363 0.907,-2.448 0.907,-7.797 0.09,-4.532 0.09,-14.052 0,-17.224 0,-2.811 -0.272,-4.079 -0.545,-4.35 -0.271,-0.273 -0.906,-0.273 -6.709,-0.454 -0.361,0 -0.271,-2.902 0,-2.902 h 23.209 c 0.544,0 0.453,2.992 -0.181,2.992 -4.805,0.182 -6.618,0.272 -6.891,0.544 -0.272,0.272 -0.724,2.63 -0.724,6.799 v 6.256 c 0,2.81 0.635,5.348 2.356,8.792 2.267,4.534 5.078,8.069 8.34,8.069 1.18,0 1.724,-0.361 1.724,-0.725 0,-0.543 -2.176,-1.903 -2.176,-4.715 0,-2.719 2.084,-4.26 4.713,-4.26 2.901,0 5.531,2.538 5.531,6.165 C 8.341,-3.173 5.168,0 0,0"
             style="fill:#022169;fill-opacity:1;fill-rule:nonzero;stroke:none"
             id="path254" /></g><g
           id="g256"
           transform="translate(528.5972,419.9597)"><path
             d="m 0,0 c -5.44,0.181 -5.893,0.272 -6.346,0.815 -0.544,0.452 -0.726,1.541 -0.726,3.354 0.091,6.981 0.273,13.599 0.273,22.755 0,9.791 0,11.793 0.09,21.221 0,0.908 -0.363,1.542 -1.179,1.542 -5.257,-0.09 -8.521,-0.09 -13.688,0 -0.726,0 -0.635,-2.539 -0.182,-2.719 5.168,-0.182 5.984,-0.272 6.347,-0.544 0.27,-0.272 0.27,-0.635 0.27,-2.63 0.182,-9.338 0.182,-10.523 0.182,-22.944 0,-5.803 -0.182,-14.324 -0.271,-18.494 0,-0.997 -0.09,-1.36 -0.364,-1.631 -0.362,-0.363 -0.996,-0.363 -5.982,-0.453 -0.272,0 -0.363,-2.811 -0.091,-2.811 8.341,0 13.598,0 21.667,-0.272 C 0.362,-2.811 0.181,0 0,0"
             style="fill:#022169;fill-opacity:1;fill-rule:nonzero;stroke:none"
             id="path258" /></g><g
           id="g260"
           transform="translate(543.3817,447.1559)"><path
             d="m 0,0 c 1.179,2.357 3.807,4.532 7.253,4.532 5.608,0 9.146,-4.097 10.325,-10.435 L -2.232,-11.62 C -2.395,-7.291 -1.815,-3.632 0,0 m 22.482,-18.676 c -2.81,-6.346 -6.798,-8.793 -12.147,-8.793 -5.258,0 -8.703,1.903 -10.516,5.621 -0.991,1.91 -1.65,4.042 -1.891,6.997 0,0 21.406,6.336 26.794,7.957 0.359,0.108 0.557,0.636 0.338,1.532 -0.826,3.395 -2.383,6.133 -4.119,7.809 -2.9,2.992 -7.07,5.259 -12.691,5.259 -5.802,0 -10.154,-2.449 -13.961,-6.256 -3.355,-3.355 -5.618,-8.248 -5.618,-13.236 0,-5.258 1.721,-9.61 5.165,-13.054 3.897,-3.898 9.247,-6.255 15.592,-6.255 5.893,0 12.692,3.264 15.775,11.332 0.09,0.543 -2.177,1.541 -2.721,1.087"
             style="fill:#022169;fill-opacity:1;fill-rule:nonzero;stroke:none"
             id="path262" /></g><g
           id="g264"
           transform="translate(598.6663,428.8428)"><path
             d="m 0,0 c -1.451,-5.801 -3.808,-8.34 -6.527,-8.34 -1.814,0 -3.173,0.907 -3.808,2.176 -0.634,1.178 -0.816,2.81 -0.816,9.881 0,6.708 0.182,14.958 0.363,17.407 1.36,0.09 3.898,0.09 10.879,0 0.724,0 0.816,3.625 0.181,3.535 -0.906,0 -7.705,0 -11.241,-0.091 0.091,2.63 0.272,10.606 0.362,12.964 -0.09,0.544 -2.629,0.635 -2.72,0.092 -0.997,-5.168 -3.083,-9.792 -4.715,-11.424 -1.177,-1.088 -2.537,-1.359 -7.433,-1.723 -0.363,0 -0.452,-3.082 0.091,-3.082 0.997,0 5.983,0 6.527,-0.09 -0.18,-7.434 -0.272,-16.499 -0.272,-23.026 0,-3.628 0.906,-5.712 2.448,-7.253 2.266,-2.267 5.258,-3.263 8.703,-3.263 4.986,0 9.247,3.897 10.788,11.511 C 2.992,-0.181 0.182,0.453 0,0"
             style="fill:#022169;fill-opacity:1;fill-rule:nonzero;stroke:none"
             id="path266" /></g><g
           id="g268"
           transform="translate(635.9846,424.2201)"><path
             d="m 0,0 c -1.812,-3.626 -4.17,-4.986 -8.613,-4.986 -6.708,0 -10.969,4.26 -10.969,15.773 0,4.352 0.544,7.707 1.905,10.516 1.722,3.356 4.624,6.347 9.79,6.347 4.896,0 7.162,-1.813 8.703,-4.894 0.907,-1.905 1.36,-5.078 1.36,-9.067 C 2.176,6.619 1.359,2.629 0,0 m -7.796,30.641 c -5.711,0 -11.332,-2.266 -15.049,-6.074 -4.17,-3.988 -6.165,-8.068 -6.165,-13.961 0,-5.166 1.904,-8.974 5.078,-12.148 3.716,-3.715 9.336,-6.617 15.23,-6.617 5.439,0 10.425,2.085 14.233,5.892 3.354,3.355 6.164,7.887 6.164,13.146 0,4.986 -1.904,10.333 -5.893,14.324 -3.354,3.354 -7.886,5.438 -13.598,5.438"
             style="fill:#022169;fill-opacity:1;fill-rule:nonzero;stroke:none"
             id="path270" /></g><g
           id="g272"
           transform="translate(698.1229,419.7773)"><path
             d="m 0,0 c -4.08,0.091 -5.167,0.182 -5.621,0.636 -0.362,0.361 -0.816,1.63 -0.816,8.339 0,5.168 0.091,8.795 0.091,12.782 0,8.704 -4.08,13.327 -11.513,13.327 -6.89,0 -10.969,-6.164 -13.689,-11.15 l -0.363,0.091 c 0.091,2.174 0.363,7.162 0.452,8.611 0,0.634 -0.181,0.997 -0.724,1.089 -2.992,0 -11.06,-0.092 -14.323,-0.092 -0.454,0 -0.454,-2.9 -0.091,-2.9 4.351,-0.09 5.531,-0.09 5.983,-0.544 0.363,-0.454 0.726,-2.63 0.726,-7.888 V 8.159 c 0,-6.436 -0.273,-7.252 -0.636,-7.615 -0.361,-0.362 -1.54,-0.362 -5.801,-0.362 -0.454,0 -0.454,-2.81 0,-2.901 3.716,0.18 15.864,0.18 20.487,0.091 0.454,-0.091 0.454,2.719 0.092,2.719 -4.262,0.182 -5.077,0.272 -5.531,0.726 -0.363,0.361 -0.453,1.54 -0.453,4.08 -0.09,3.806 -0.181,7.795 -0.181,9.88 0,3.083 0.271,4.533 1.36,6.527 1.723,3.627 5.439,8.703 10.516,8.703 3.716,0 5.348,-2.448 5.348,-6.979 V 4.533 c 0,-2.176 -0.09,-3.355 -0.453,-3.716 -0.363,-0.363 -2.085,-0.544 -4.171,-0.635 -0.27,0 -0.362,-2.629 0.182,-2.721 3.899,0.092 13.236,0.092 19.038,0 C 0.453,-2.628 0.453,0 0,0"
             style="fill:#022169;fill-opacity:1;fill-rule:nonzero;stroke:none"
             id="path274" /></g><g
           id="g276"
           transform="translate(416.5267,433.1151)"><path
             d="m 0,0 c 0.09,0.362 -2.522,1.261 -2.659,0.827 -1.102,-3.478 -2.63,-6.108 -5.163,-8.635 -3.269,-3.259 -6.51,-5.076 -12.221,-5.076 -7.254,0 -12.149,2.993 -14.324,7.525 -1.995,3.897 -2.902,8.702 -2.902,15.592 0,7.887 0.998,12.964 3.718,18.404 1.994,4.078 6.346,7.977 13.779,7.977 5.44,0 8.431,-1.269 10.698,-3.535 2.629,-2.63 4.804,-7.616 6.618,-13.781 0.09,-0.362 2.357,-0.362 2.357,0 -0.092,4.715 -0.092,14.325 0.362,20.488 0,0.545 -2.266,0.727 -2.447,0.273 -1.633,-2.9 -2.539,-3.717 -3.264,-3.717 -1.179,0 -5.258,3.536 -14.233,3.536 -8.612,0 -15.049,-4.262 -20.126,-9.247 -5.529,-5.621 -8.34,-13.145 -8.34,-20.671 0,-7.976 3.716,-14.504 7.797,-18.584 4.623,-4.622 10.697,-7.886 19.038,-7.886 5.798,0 9.484,1.369 12.674,3.782 l -0.005,-0.006 c 0,0 1.298,1.033 3.232,0.574 1.309,-0.311 1.631,-0.817 3.264,-3.717 0.181,-0.454 2.448,-0.272 2.448,0.272 C -0.153,-9.441 -0.091,-4.715 0,0"
             style="fill:#022169;fill-opacity:1;fill-rule:nonzero;stroke:none"
             id="path278" /></g></g></g></g></svg>
